<?xml version="1.0" encoding="UTF-8" standalone="no"?>
<!-- Created with Inkscape (http://www.inkscape.org/) -->
<svg id="svg4155" xmlns:rdf="http://www.w3.org/1999/02/22-rdf-syntax-ns#" xmlns="http://www.w3.org/2000/svg" xml:space="preserve" height="146.66" viewBox="0 0 240.55208 146.65782" width="240.55" version="1.1" xmlns:cc="http://creativecommons.org/ns#" xmlns:dc="http://purl.org/dc/elements/1.1/"><metadata id="metadata4161"><rdf:RDF><cc:Work rdf:about=""><dc:format>image/svg+xml</dc:format><dc:type rdf:resource="http://purl.org/dc/dcmitype/StillImage"/><dc:title/></cc:Work></rdf:RDF></metadata><g id="g4163" transform="matrix(1.25 0 0 -1.25 -3.0288 123.17)"><path id="path4323" d="m154.02 18.404c6.0411 1.1328 3.6526 13.498 6.2218 4.8725" stroke="#000" stroke-width="1.0424" fill="none"/><path id="path4167" d="m1.3092-6.6295h192.76v192.76h-192.76v-192.76z" fill-opacity="0"/><path id="path4337" d="m114.14 38.287c20.568 8.9822 24.824 1.7146 32.652 3.8164 16.157 4.9042 14.782 12.774 9.117 22.05 7.1105-3.5113 12.297-10.39 17.174-17.81l1.2721-9.8591-13.781-6.2547-42.723 2.2262z" fill-rule="evenodd" stroke="#000" stroke-width="1.0424" fill="#f00027"/><path id="path4337-8" d="m84.662 38.924c-7.7032 10.931-25.972-0.51262-34.56 1.6962-13.442 3.4572-14.061 16.256-8.0569 23.322-7.11-3.51-12.296-10.389-17.173-17.809l-1.2721-9.8591 13.781-6.2547 42.723 2.2262z" fill-rule="evenodd" stroke="#000" stroke-width="1.0424" fill="#f00027"/><path id="path4286" d="m82.734 38.119c-23.056 7.663-38.381-6.703-43.028-6.147-17.8 2.128-17.82 15.292-13.043 26.986-4.0173-6.1305-8.9606-6.7053-11.544-21.439-2.0837 2.1298-4.4502 2.7519-5.3972 10.944-5.0479-15.904-1.8102-19.6 0.449-24.737-1.853 1.221-3.7214 2.463-6.7465 5.247 0.6367-7.472 3.261-10.969 5.3972-15.442l-5.3972 3.299c8.9115-24.403 21.884-33.577 37.18-34.033 15.053 1.3917 22.691 3.8414 31.634 5.9969" fill-rule="evenodd" stroke="#000" stroke-width="1.0424" fill="#cc002b"/><path id="path4309" d="m76.329 77.336c-7.0487-0.76675-11.604 5.2872-15.934 9.4323 5.4962-3.3921 11.86-6.5906 19.715-4.8725" fill-rule="evenodd" stroke="#000" stroke-width="1.0424" fill="#f8db00"/><path id="path4303" d="m71.233 20.472c2.4321 7.1574 11.177 18.968 22.938 29.235 3.264 3.5482 3.1929 7.0964 3.1484 10.645-0.45638 5.0218-3.3879 5.8004-5.6971 7.646-11.796 4.0102-12.338 6.4683-16.641 9.4451 5.4305 2.4895 8.042 8.3688 3.2983 12.294 2.9485 2.0979 5.9195 3.5314 8.8454 3.1484 14.21-1.8603 30.328-16.461 25.202-41.652-1.873-7.6187-1.0695-9.9333-0.31491-10.821 1.6842-1.981 3.4641-4.8801 4.6476-4.1978 3.7305 2.1507 9.595 2.9503 14.393 2.8485 8.1181 0.46844 23.683-7.4606 27.136-7.4961 8.7998-0.09052 19.918 9.0276 13.193 26.686 4.6398-6.1252 9.3291-10.226 11.34-20.821 3.215 1.9445 4.2931 6.0258 5.6017 9.8767 3.8405-8.5943 2.7608-16.369-0.14992-23.838 1.8446 1.0339 3.7455 2.2647 6.1468 5.2473 0.35253-6.5885-3.3462-10.341-5.5471-15.142l4.6476 2.5487c-5.5864-16.766-14.633-30.86-33.963-33.601-12.177 2.7215-23.787 6.5152-38.38 6.0151" fill-rule="evenodd" stroke="#000" stroke-width="1.0424" fill="#cc002b"/><path id="path4307" d="m87.799 83.766 6.0426-2.4913-1.1396 2.3323-3.9754 3.3924-0.9541-0.9806z" fill-rule="evenodd" fill="#680000"/><path id="path4266" d="m93.63 82.202c0.22095-0.55629 1.5656-0.2464 1.6697 0.87459l0.68907 0.0265c-2.4088-5.7338-4.8841 3.1624-7.6063 3.2598 0.08211-1.5912 0.28663-3.2617-2.2527-3.1538-1.2192 0.0472-1.9471 0.69752-2.0672 2.0937 0.22285 1.9984 1.0241 1.9537 1.7227 2.287 3.9347 1.0894 5.9261-0.5572 7.8448-5.3878z" fill-rule="evenodd"/><ellipse id="path4268" rx=".94639" transform="scale(1,-1)" ry=".97450" cy="-85.269" cx="86.004" fill="#fff"/><path id="path4282" d="m89.71 5.4796c3.71 10.926 21.93 19.108 5.171 33.905 19.869-4.365 19.679-26.14 23.599-44.147" fill-rule="evenodd" stroke="#000" stroke-width="1.0424" fill="#f3611e"/><path id="path4270" d="m70.572 5.3172c-6.7998 9.1892-1.185 16.25 1.2721 23.853 1.106-7.9144 4.4939-12.095 8.6929-14.948 1.8306 11.02 6.8081 14.315 11.661 17.916-5.262-5.7694-4.7357-15.312 3.6044-21.096 11.8-8.5291 11.813-9.5122 14.1-13.569 2.6752 3.7331 5.4975 7.1473 4.8765 18.022 5.3567 3.0639 5.3818 8.7937 7.1028 13.675 7.0638-11.521 6.4044-18.71 1.9082-23.747l6.6787 3.8164c-1.0411-4.5898-3.5942-8.8015-6.8907-12.827l4.0284 1.0601c-6.39-11.462-15.44-18.146-30.005-14.948-19.074-1.4339-26.877 5.4253-31.061 14.948 1.4372 0.18876 3.4955-0.28844 4.6645-0.63606-4.5171 3.1006-5.2928 7.864-7.5268 11.979 2.2309-1.5624 4.3923-3.5412 6.8907-3.4984z" fill-rule="evenodd" stroke="#000" stroke-width="1.0424" fill="#f10027"/><path id="path4272" d="m80.643 14.434c-0.61005-4.3465 0.29655-9.223 0.9541-13.569" stroke="#000" stroke-width="1.0424" fill="none"/><path id="path4274" d="m88.329-13.553c-9.8577 3.0009-11.868 10.711-11.184 20.036 1.6549-3.1239 3.2277-6.3462 6.9437-6.9968-0.513-9.422 2.123-9.929 4.24-13.039z" fill-rule="evenodd" stroke="#000" stroke-width="1.0424" fill="#f3611e"/><path id="path4276" d="m84.067-0.51341 0.42404 3.0213c1.3693-6.3638 4.2665-6.1066 6.8377-7.2618" stroke="#000" stroke-width="1.0424" fill="none"/><path id="path4278" d="m92.093 14.487c4.8016 2.3764 2.469 6.7911 2.8093 10.442 4.362-5.5516 5.6177-11.021 4.6115-16.432" fill-rule="evenodd" stroke="#000" stroke-width="1.0424" fill="#f00027"/><path id="path4315" d="m65.642 84.22c-1.2344 4.9074-5.4494 8.0314-9.8199 10.195 3.1332-0.2065 3.632 1.6176 13.643-7.871 2.9053-2.5022 5.4927-3.8444 9.1922-4.5598-3.5925-1.2888-9.1425-0.63799-13.015 2.236z" fill-rule="evenodd" stroke="#000" stroke-width="1.0424" fill="#d36224"/><path id="path4319" stroke-linejoin="bevel" d="m56.197 94.19-3.7481 0.14992c1.131 4.4021 10.725 4.0906 12.144 2.9235 4.4675-3.0996 12.099-9.8161 13.692-7.456 2.6182-1.7732 3.2036-4.2642 1.8252-7.2364-3.635 0.18966-7.0825 1.0669-10.12 3.4482-9.2676 9.0343-11.792 8.9558-13.793 8.1708z" fill-rule="evenodd" stroke="#000" stroke-width="1.0424" fill="#ecd404"/><path id="path4321" d="m157.47 9.6332c9.4022 3.0109 10.572 12.025 8.6955 21.964-1.9303-6.235-3.6671-6.8379-5.697-7.721 0.68118-5.7431 0.48481-11.276-2.9985-14.243z" fill-rule="evenodd" stroke="#000" stroke-width="1.0424" fill="#f00027"/><path id="path4327" d="m153.84 18.569c2.6089 0.54829 4.5069 3.017 5.5656 8.2159l1.0071-3.3924" stroke="#000" stroke-linecap="square" stroke-width="1.0424" fill="none"/><path id="path4331" stroke-linejoin="bevel" d="m166.99 21.852c2.2325 1.7222 3.8633 3.9257 5.0974 6.4467l1.0085-6.5928" stroke="#000" stroke-width="1.0424" fill="none"/><path id="path4329" d="m172.46 25.825c3.1159 1.7587 5.01 5.0884 6.7465 8.6206 0.27836-7.385 1.6692-15.057-3.973-20.914 2.3126 0.86245 4.2859 1.9479 6.3717 4.1229-1.5477-4.2272-2.6801-9.1234-6.5216-12.968 1.0925 0.2549 1.6993-0.29952 3.898 1.7991-2.7869-12.482-11.631-14.392-19.415-17.841 3.4998 3.4993 7.0692 6.8736 9.3702 11.169-1.6049-0.17778-3.1387-0.32-4.3478-0.29984 4.2257 2.9946 6.3175 7.1531 8.3957 11.319-1.8951-1.1928-4.0788-1.9527-6.3717-2.5487 4.7844 4.4909 5.5982 10.881 5.847 17.541z" fill-rule="evenodd" stroke="#000" stroke-width="1.0424" fill="#f00027"/><path id="path4333" stroke-linejoin="bevel" d="m145.42 3.674c5.2282-0.72272 6.4636 2.5474 8.799 4.7175l-0.47705-3.5514" stroke="#000" stroke-width="1.0424" fill="none"/><path id="path4335" d="m153.74 4.9992c5.1655-0.18285 6.358 2.3527 9.117 3.8164-4.6297-14.378-12.186-15.144-17.916-14.471 4.0782 2.7924 7.9405 5.622 8.799 10.654z" fill-rule="evenodd" stroke="#000" stroke-width="1.0424" fill="#f00027"/><path id="path4321-6" d="m38.588 10.391c-9.4022 3.0109-10.572 12.025-8.6955 21.964 1.9303-6.235 3.6671-6.8379 5.697-7.721-0.68118-5.7431-0.48481-11.276 2.9985-14.243z" fill-rule="evenodd" stroke="#000" stroke-width="1.0424" fill="#f00027"/><path id="path4327-0" d="m42.161 19.326c-2.6089 0.54829-4.5069 3.017-5.5656 8.2159l-1.0071-3.3924" stroke="#000" stroke-linecap="square" stroke-width="1.0424" fill="none"/><path id="path4331-0" stroke-linejoin="bevel" d="m29.068 22.61c-2.2325 1.7222-3.8633 3.9257-5.0974 6.4467l-1.0085-6.5928" stroke="#000" stroke-width="1.0424" fill="none"/><path id="path4329-1" d="m23.596 26.583c-3.1159 1.7587-5.01 5.0884-6.7465 8.6206-0.27836-7.385-1.6692-15.057 3.973-20.914-2.3126 0.86245-4.2859 1.9479-6.3717 4.1229 1.5477-4.2272 2.6801-9.1234 6.5216-12.968-1.0925 0.25491-1.6993-0.29951-3.898 1.7991 2.7869-12.482 11.631-14.392 19.415-17.841-3.4998 3.4993-7.0692 6.8736-9.3702 11.169 1.6049-0.17778 3.1387-0.32001 4.3478-0.29984-4.226 2.9939-6.318 7.1524-8.396 11.318 1.895-1.192 4.079-1.9522 6.372-2.5482-4.784 4.4912-5.598 10.881-5.847 17.541z" fill-rule="evenodd" stroke="#000" stroke-width="1.0424" fill="#f00027"/><path id="path4333-9" stroke-linejoin="bevel" d="m50.617 4.5443c-5.2282-0.72271-6.4636 2.5474-8.799 4.7175l0.47705-3.5514" stroke="#000" stroke-width="1.0424" fill="none"/><path id="path4335-5" d="m42.32 5.757c-5.1655-0.18285-6.358 2.3527-9.117 3.8164 4.6297-14.378 12.186-15.144 17.916-14.471-4.0782 2.7924-7.9405 5.6219-8.799 10.654z" fill-rule="evenodd" stroke="#000" stroke-width="1.0424" fill="#f00027"/><path id="path4396" d="m42.404 54.685c1.6623 3.9017 4.5029 4.66 6.8215 5.772-3.7392-5.0915-1.1352-7.1822-2.024-9.1453-1.7661-3.901-6.2376-0.007-4.7975 3.3733z" fill-rule="evenodd" stroke="#000" stroke-width="1.0424" fill="#f3611e"/><path id="path4396-2" d="m162.16 70.028c1.9658 5.2122 5.3248 6.2252 8.0667 7.7108-4.4218-6.8016-1.3424-9.5946-2.3934-12.217-2.0885-5.2113-7.3762-0.009-5.6733 4.5063z" fill-rule="evenodd" stroke="#000" stroke-width="1.0424" fill="#fe9d2a"/><path id="path4396-3-0" d="m34.26 68.56c-1.6623 3.9017-5.563 6.9922-7.8816 8.1043 3.7392-5.0915 2.8314-9.0904 3.7201-11.053 1.7661-3.901 5.6015-0.43105 4.1615 2.9492z" fill-rule="evenodd" stroke="#000" stroke-width="1.0424" fill="#f3611e"/><path id="path4396-3" d="m32.776 64.849c-1.6623 3.9017-6.1991 4.872-8.5177 5.984 3.7392-5.0915 2.8314-7.3942 3.7201-9.3573 1.7661-3.901 6.2376-0.007 4.7975 3.3733z" fill-rule="evenodd" stroke="#000" stroke-width="1.0424" fill="#f00027"/><path id="path4458" d="m150.61 51.909c0.29579-2.738 5.1277-2.9758 5.9366 0.053-0.21994 6.6587-5.0866 8.6457-10.018 10.177 2.6776-3.4275 4.0814-5.0037 4.0814-10.23z" fill-rule="evenodd" stroke="#000" stroke-width="1.0424" fill="#f00027"/></g></svg>
