<?xml version="1.0" standalone="no"?>
<!DOCTYPE svg PUBLIC "-//W3C//DTD SVG 20010904//EN"
 "http://www.w3.org/TR/2001/REC-SVG-20010904/DTD/svg10.dtd">
<svg version="1.0" xmlns="http://www.w3.org/2000/svg"
 width="193.000000pt" height="193.000000pt" viewBox="0 0 193.000000 193.000000"
 preserveAspectRatio="xMidYMid meet">
<metadata>
Created by potrace 1.11, written by Peter Selinger 2001-2013
</metadata>
<g transform="translate(0.000000,193.000000) scale(0.100000,-0.100000)"
fill="#000000" stroke="none">
<path d="M777 1764 c-15 -8 -71 -19 -124 -23 -81 -7 -98 -12 -112 -30 -9 -12
-32 -29 -51 -39 -21 -10 -45 -36 -63 -67 -16 -27 -42 -64 -58 -80 -16 -17 -29
-40 -29 -52 0 -11 -16 -44 -35 -72 -19 -28 -35 -60 -35 -71 0 -11 -9 -43 -20
-72 -13 -34 -22 -85 -25 -142 -2 -49 -7 -91 -9 -94 -3 -2 6 -14 20 -24 17 -14
23 -26 19 -39 -4 -11 -1 -26 5 -34 7 -8 10 -21 7 -29 -4 -9 2 -17 13 -21 12
-4 22 -19 26 -43 6 -30 8 -33 14 -17 4 11 3 23 -4 27 -8 5 -7 11 2 20 10 10
17 10 32 0 17 -10 22 -9 32 8 19 30 44 24 68 -18 12 -20 23 -41 24 -47 1 -5 6
-16 10 -24 7 -10 1 -21 -18 -38 -36 -31 -76 -40 -87 -21 -5 9 -21 23 -35 33
-26 17 -27 17 -21 -4 4 -18 2 -21 -14 -16 -10 4 -19 2 -19 -3 0 -20 123 -172
155 -192 19 -11 35 -24 37 -28 2 -4 22 -22 45 -40 38 -30 42 -38 53 -102 6
-38 10 -101 8 -141 -3 -67 -2 -72 24 -92 15 -11 33 -17 43 -13 15 6 15 8 -4
24 -17 15 -18 19 -6 30 13 11 17 9 25 -13 15 -39 28 -30 28 20 0 31 -5 48 -16
55 -14 9 -13 10 5 5 12 -3 25 -1 29 6 5 9 10 7 16 -7 7 -15 8 -13 5 9 -5 32 3
35 21 7 7 -12 18 -17 28 -13 13 5 15 2 9 -15 -4 -13 -2 -22 4 -22 6 0 11 -8
11 -17 0 -35 34 -124 62 -161 l17 -23 -3 38 c-2 21 3 53 10 70 9 22 9 33 2 33
-5 0 -8 7 -4 15 3 8 0 15 -6 15 -9 0 -9 3 0 12 18 18 15 36 -7 43 -13 4 -17
12 -13 32 3 18 1 24 -7 19 -13 -8 -14 3 -2 23 5 8 14 10 21 6 9 -5 11 -4 6 3
-4 7 7 17 29 26 20 9 34 19 31 24 -11 18 14 34 59 39 27 2 59 9 73 14 21 8 23
7 13 -5 -10 -12 -9 -14 3 -12 9 1 19 5 22 9 4 4 16 7 27 7 16 0 19 -5 13 -31
-5 -26 -3 -30 13 -24 13 4 21 0 24 -12 3 -11 5 -6 6 12 1 24 3 27 12 15 8 -12
10 -9 6 11 -3 22 -1 25 17 21 11 -3 15 -7 8 -10 -6 -2 -12 -8 -12 -14 0 -6 9
-3 20 7 19 17 19 20 4 42 -8 14 -13 28 -9 31 3 4 10 0 15 -8 12 -20 30 28 30
81 0 22 7 56 15 77 9 20 17 53 19 72 2 19 7 44 11 55 8 20 7 20 -7 1 -18 -23
-47 -15 -45 11 1 17 16 18 186 21 152 2 192 6 225 21 52 22 103 80 111 125 12
59 5 70 -48 78 -26 3 -67 14 -91 23 -25 10 -49 14 -54 11 -12 -7 -22 -46 -30
-121 l-7 -60 -67 0 c-36 0 -70 -3 -74 -7 -4 -5 -20 -8 -35 -8 -15 0 -40 -8
-57 -17 -18 -10 -36 -14 -48 -9 -10 4 -48 9 -84 11 -114 7 -154 14 -166 30 -9
12 -20 13 -68 4 -31 -5 -60 -8 -65 -5 -21 13 -101 -48 -84 -65 6 -6 32 3 69
22 55 29 66 31 117 25 42 -6 58 -12 62 -26 3 -10 17 -21 30 -24 13 -3 36 -17
50 -30 15 -14 36 -26 48 -28 18 -2 22 -9 19 -36 -1 -17 2 -32 6 -32 4 0 8 -13
7 -30 0 -16 -3 -30 -7 -30 -5 0 -8 -7 -8 -15 0 -8 -7 -15 -15 -15 -11 0 -12 5
-5 26 13 33 13 34 -5 28 -8 -4 -15 -11 -15 -16 0 -13 -45 -53 -74 -66 -90 -40
-95 -42 -103 -27 -5 8 -23 15 -41 17 -17 1 -32 5 -32 9 0 4 -15 10 -33 13 -53
10 -120 59 -171 124 -25 33 -46 65 -46 71 0 15 -60 125 -71 129 -4 2 -5 10 -2
18 3 8 1 14 -5 14 -5 0 -13 15 -17 33 -4 17 -9 35 -10 40 -1 4 -3 14 -4 23 0
8 -5 13 -11 9 -5 -3 -7 -13 -4 -23 4 -13 2 -12 -7 3 -7 11 -11 44 -10 77 2 36
-2 58 -8 58 -6 0 -11 5 -11 11 0 5 4 8 9 4 6 -3 9 3 9 12 -3 33 12 74 25 71
20 -5 76 47 80 73 2 13 2 18 0 11 -3 -8 -11 -11 -19 -8 -8 3 -14 -1 -14 -9 0
-8 -6 -15 -13 -15 -7 0 -23 -9 -34 -20 -19 -17 -23 -17 -34 -4 -6 8 -9 17 -5
21 7 7 -35 39 -46 35 -17 -5 -6 31 18 64 20 25 30 32 39 24 8 -7 21 -7 36 -1
44 18 134 81 140 100 9 22 64 38 184 52 50 6 109 13 132 16 36 4 48 0 100 -36
84 -59 89 -63 112 -104 20 -37 24 -49 36 -137 4 -24 11 -53 17 -63 5 -10 7
-35 3 -56 -4 -22 0 -55 8 -82 18 -54 16 -117 -3 -129 -8 -5 -11 -13 -6 -17 10
-10 36 25 36 49 0 12 8 18 24 18 14 0 27 4 30 8 17 28 -5 245 -27 271 -8 9
-22 50 -32 91 -30 128 -39 143 -149 250 -16 16 -35 26 -42 23 -7 -2 -26 2 -41
10 -15 8 -46 20 -68 27 -61 19 -128 53 -143 73 -16 21 -67 22 -105 1z m-287
-474 c0 -5 -4 -10 -10 -10 -5 0 -10 5 -10 10 0 6 5 10 10 10 6 0 10 -4 10 -10z
m1238 -320 c1 -9 -4 -24 -12 -35 -14 -19 -16 -19 -31 -4 -24 23 -11 61 18 57
12 -2 23 -10 25 -18z m-1348 -52 c0 -17 -3 -19 -12 -10 -7 7 -20 12 -30 12
-10 0 -18 5 -18 10 0 6 14 10 30 10 24 0 30 -4 30 -22z m640 -459 c0 -6 7 -9
15 -5 8 3 22 3 30 0 12 -5 13 -10 4 -20 -14 -17 -33 -19 -23 -2 5 7 2 9 -7 6
-48 -18 -57 -18 -83 7 l-27 25 45 0 c27 0 46 -5 46 -11z m-145 -239 c3 -5 -1
-10 -9 -10 -9 0 -16 5 -16 10 0 6 4 10 9 10 6 0 13 -4 16 -10z m-190 -10 c3
-5 1 -10 -4 -10 -6 0 -11 5 -11 10 0 6 2 10 4 10 3 0 8 -4 11 -10z"/>
<path d="M1032 1370 c-12 -5 -32 -19 -44 -30 l-22 -20 25 -26 c20 -20 38 -26
91 -30 40 -2 69 0 73 6 4 6 -7 10 -27 11 -18 1 -44 4 -58 9 l-25 8 33 12 c17
6 32 16 32 21 0 5 8 9 17 9 15 0 15 2 3 14 -20 19 -70 27 -98 16z"/>
<path d="M676 1335 c-23 -17 -16 -28 22 -33 54 -7 66 -42 14 -42 -15 0 -44 -9
-65 -20 -21 -11 -42 -18 -47 -15 -6 4 -10 -3 -10 -14 0 -20 19 -20 46 0 6 5
14 6 17 2 4 -3 14 0 22 7 9 8 39 14 66 14 35 1 48 5 44 14 -2 6 2 12 10 12 22
0 18 36 -7 65 -25 29 -81 34 -112 10z"/>
<path d="M852 1269 c-5 -14 -17 -32 -25 -40 -12 -12 -12 -17 0 -27 7 -7 13 -8
13 -3 0 5 6 16 13 23 24 26 42 52 30 45 -7 -4 -13 0 -16 10 -3 15 -6 13 -15
-8z"/>
<path d="M845 1136 c-39 -14 -45 -24 -33 -52 9 -19 18 -22 62 -22 28 1 64 -3
80 -7 20 -5 31 -4 37 6 7 11 9 10 9 -3 0 -10 5 -18 11 -18 6 0 8 7 5 16 -5 14
-4 15 9 4 17 -14 17 -15 33 23 17 40 15 54 -10 61 -16 4 -28 0 -39 -14 -9 -10
-19 -16 -23 -13 -3 3 -12 1 -19 -6 -12 -9 -18 -6 -31 14 -17 26 -38 29 -91 11z"/>
<path d="M824 979 c-11 -3 -22 -5 -26 -3 -8 5 -58 -58 -58 -74 0 -6 -6 -13
-12 -15 -7 -3 -4 -6 8 -6 13 -1 26 -13 35 -33 17 -37 39 -49 39 -19 0 11 5 23
10 26 6 3 10 20 10 36 0 16 6 31 13 33 6 2 37 11 68 20 78 23 142 10 185 -36
27 -30 34 -33 49 -22 19 14 15 36 -15 74 -18 24 -22 25 -153 26 -74 0 -143 -3
-153 -7z"/>
<path d="M1397 974 c-14 -14 -6 -24 19 -24 16 0 24 5 22 13 -5 14 -31 21 -41
11z"/>
<path d="M1294 894 c-1 -17 3 -24 17 -24 10 0 19 5 19 11 0 5 -4 7 -10 4 -5
-3 -10 1 -10 9 0 25 -15 26 -16 0z"/>
<path d="M372 813 c5 -25 28 -28 28 -4 0 12 -6 21 -16 21 -9 0 -14 -7 -12 -17z"/>
<path d="M1300 749 c0 -5 5 -7 10 -4 6 3 10 8 10 11 0 2 -4 4 -10 4 -5 0 -10
-5 -10 -11z"/>
<path d="M1147 334 c-3 -3 -3 -17 -1 -30 2 -13 0 -24 -7 -24 -6 0 -4 -7 5 -15
21 -21 22 -20 25 30 2 41 -6 55 -22 39z"/>
<path d="M990 208 c0 -7 5 -20 10 -28 8 -12 10 -11 10 7 0 12 -4 25 -10 28 -5
3 -10 0 -10 -7z"/>
</g>
</svg>
